<?xml version="1.0" ?>
<!-- Find more at icons.mysitemyway.com -->
<svg height="100" width="100" viewBox="0 0 100 100" xmlns:xlink="http://www.w3.org/1999/xlink" xmlns="http://www.w3.org/2000/svg" version="1.1">
<path d="M61.049,91.378L24.665,55.05C23.288,53.674,22.6,51.99,22.6,50c0-1.99,0.688-3.674,2.065-5.05L61.049,8.622 c1.376-1.376,3.06-2.065,5.05-2.065s3.674,0.689,5.051,2.065l4.186,4.185c1.376,1.377,2.064,3.061,2.064,5.05 c0,1.991-0.688,3.674-2.064,5.05L48.214,50.028l27.121,27.065c1.376,1.414,2.064,3.106,2.064,5.078s-0.688,3.646-2.064,5.022 l-4.186,4.185c-1.377,1.376-3.061,2.065-5.051,2.065S62.425,92.754,61.049,91.378z" fill="#fff" />
</svg>