<?xml version="1.0" encoding="utf-8"?>
<!-- Generator: Adobe Illustrator 19.0.1, SVG Export Plug-In . SVG Version: 6.00 Build 0)  -->
<svg version="1.1" id="Layer_1" xmlns="http://www.w3.org/2000/svg" xmlns:xlink="http://www.w3.org/1999/xlink" x="0px" y="0px"
	 viewBox="0 0 512 512" style="enable-background:new 0 0 512 512;" xml:space="preserve">
<style type="text/css">
	.st0{fill:#ffffff;}
</style>
<path class="st0" d="M425.9,279.7l-66.1-154.1c-1.8-4.2-5.5-7.2-10-8c-4.5-0.9-9,0.5-12.2,3.7c0,0-4.1,3.9-12.1,7.7
	c-7.3,3.5-19.5,7.6-36.3,7.6c-17.6,0-35.6-4.5-54.7-9.3c-19.8-4.9-40.3-10.1-61.3-10.1c-43.8,0-66.7,22.4-67.7,23.3
	c0,0-0.1,0.1-0.1,0.1c-0.1,0.1-0.3,0.3-0.4,0.4c-0.2,0.2-0.4,0.4-0.5,0.6c-0.1,0.1-0.1,0.2-0.2,0.3c-1,1.4-1.8,2.8-2.2,4.4
	c0,0,0,0,0,0.1c-0.1,0.4-0.2,0.8-0.3,1.2c-0.4,2-0.3,4.2,0.3,6.3c0,0.1,0,0.2,0.1,0.2c0.1,0.3,0.2,0.5,0.3,0.8
	c0.1,0.2,0.1,0.3,0.2,0.5c0,0.1,0,0.1,0.1,0.2l116,269.7c2.2,5,7.1,8.3,12.6,8.3c1.9,0,3.7-0.4,5.4-1.1c3.4-1.4,5.9-4.1,7.3-7.5
	s1.3-7.1-0.1-10.5l-45.5-105.7c1.4-0.8,2.9-1.7,4.7-2.5c7.3-3.5,19.5-7.7,36.3-7.7c17.7,0,35.6,4.5,54.7,9.3
	c19.8,5,40.3,10.1,61.3,10.1c43.8,0,66.7-22.4,67.7-23.3C427,290.8,428.1,284.8,425.9,279.7z M132.1,154.9
	c7.6-4.5,21.3-10.3,41.1-10.3c17.7,0,35.6,4.5,54.7,9.3c19.8,5,40.3,10.1,61.3,10.1c23.2,0,40.4-6.1,52-12.3l55.3,128.8
	c-7.8,4.6-21.4,10.2-41.2,10.2c-17.6,0-35.6-4.5-54.7-9.3c-19.8-5-40.3-10.1-61.3-10.1c-23.2,0-40.5,6.3-51.9,12.3L132.1,154.9z"/>
</svg>
