<?xml version="1.0" ?>
<!-- Find more at icons.mysitemyway.com -->
<svg height="100" width="100" viewBox="0 0 100 100" xmlns:xlink="http://www.w3.org/1999/xlink" xmlns="http://www.w3.org/2000/svg" version="1.1">
<path d="M16.071,14.286c0,2.679-1.191,4.725-3.571,6.139v70.647c0,0.482-0.177,0.901-0.53,1.255 c-0.354,0.354-0.772,0.53-1.255,0.53H7.143c-0.484,0-0.902-0.177-1.256-0.53c-0.354-0.354-0.53-0.772-0.53-1.255V20.424 c-2.381-1.414-3.572-3.46-3.572-6.139c0-1.971,0.698-3.655,2.093-5.05c1.395-1.395,3.078-2.092,5.05-2.092 c1.971,0,3.655,0.697,5.05,2.092C15.374,10.631,16.071,12.314,16.071,14.286z M98.214,17.857v42.578 c0,0.931-0.232,1.646-0.697,2.148c-0.466,0.503-1.2,1.015-2.204,1.535c-7.999,4.315-14.863,6.473-20.592,6.473 c-2.27,0-4.567-0.408-6.892-1.228c-2.326-0.817-4.344-1.711-6.055-2.679c-1.712-0.967-3.86-1.859-6.445-2.679 c-2.586-0.817-5.237-1.228-7.952-1.228c-7.143,0-15.774,2.717-25.893,8.147c-0.633,0.335-1.247,0.502-1.841,0.502 c-0.968,0-1.805-0.353-2.511-1.06c-0.707-0.707-1.061-1.544-1.061-2.512V26.451c0-1.19,0.577-2.213,1.73-3.069 c0.781-0.521,2.25-1.32,4.409-2.399c8.779-4.464,16.61-6.697,23.493-6.697c3.98,0,7.701,0.54,11.161,1.619 c3.46,1.079,7.533,2.716,12.221,4.911c1.414,0.707,3.051,1.06,4.911,1.06c2.009,0,4.194-0.391,6.557-1.172s4.409-1.655,6.139-2.623 c1.729-0.967,3.366-1.842,4.911-2.623c1.543-0.781,2.557-1.172,3.041-1.172c0.967,0,1.804,0.354,2.511,1.061 C97.861,16.053,98.214,16.89,98.214,17.857z" fill="#fff" />
</svg>