<?xml version="1.0" encoding="UTF-8"?>
<!DOCTYPE svg PUBLIC "-//W3C//DTD SVG 1.1//EN" "http://www.w3.org/Graphics/SVG/1.1/DTD/svg11.dtd">
<!-- Creator: CorelDRAW X6 -->
<svg xmlns="http://www.w3.org/2000/svg" xml:space="preserve" width="210mm" height="297mm" version="1.1" style="shape-rendering:geometricPrecision; text-rendering:geometricPrecision; image-rendering:optimizeQuality; fill-rule:evenodd; clip-rule:evenodd"
viewBox="0 0 21000 29700"
 xmlns:xlink="http://www.w3.org/1999/xlink"
 enable-background="new 0 0 512 512">
 <defs>
  <style type="text/css">
   <![CDATA[
    .fil0 {fill:#ffffff}
   ]]>
  </style>
 </defs>
 <g id="Layer_x0020_1">
  <metadata id="CorelCorpID_0Corel-Layer"/>
  <g id="_316949584">
   <path id="play.svg" class="fil0" d="M14502 13981l-6456 -4934c-172,-131 -398,-152 -591,-57 -193,94 -312,287 -312,504l29 9844c0,213 119,406 312,500 78,37 164,57 246,57 123,0 242,-41 340,-115l6427 -4910c139,-107 221,-271 221,-447 0,-172 -82,-336 -217,-443zm-1263 447l-4946 3778 -21 -7576 4967 3798z"/>
   <path class="fil0" d="M9911 6390c4431,0 8023,3592 8023,8023 0,4431 -3592,8023 -8023,8023 -4431,0 -8023,-3592 -8023,-8023 0,-4431 3592,-8023 8023,-8023zm0 1131c3806,0 6892,3085 6892,6892 0,3806 -3085,6892 -6892,6892 -3806,0 -6892,-3085 -6892,-6892 0,-3806 3085,-6892 6892,-6892z"/>
  </g>
 </g>
</svg>
