<?xml version="1.0" encoding="utf-8"?>
<!-- Generator: Adobe Illustrator 19.0.1, SVG Export Plug-In . SVG Version: 6.00 Build 0)  -->
<svg version="1.1" id="Layer_1" xmlns="http://www.w3.org/2000/svg" xmlns:xlink="http://www.w3.org/1999/xlink" x="0px" y="0px"
	 viewBox="0 0 512 512" style="enable-background:new 0 0 512 512;" xml:space="preserve">
<style type="text/css">
	.st0{fill:#656183;}
</style>
<path class="st0" d="M381.8,170.5l19.6-23.3c2.3-2.8,3.5-6.3,3.2-10c-0.3-3.6-2-6.9-4.8-9.3l-43-36.1c-2.8-2.3-6.3-3.5-10-3.1
	c-3.6,0.3-6.9,2-9.3,4.8l-19.8,23.6c-6.6-2.9-13.4-5.4-20.3-7.3v-30c0-7.5-6.1-13.7-13.7-13.7h-56.2c-7.5,0-13.7,6.1-13.7,13.7v30.5
	c-64.5,18.9-109.1,78.2-109.1,145.7c0,83.7,68.1,151.8,151.8,151.8c83.7,0,151.8-68.1,151.8-151.8
	C408.2,225.3,399.1,195.8,381.8,170.5z M256.5,380.5C187.8,380.5,132,324.6,132,256c0-68.6,55.8-124.4,124.5-124.4
	S380.9,187.4,380.9,256C380.9,324.6,325.1,380.5,256.5,380.5z M364.1,149.1c-6.8-6.8-14.2-13-22.2-18.5l7.6-9.1l22.1,18.5
	L364.1,149.1z M241.1,105V93.5H270v11.3C260.4,104,250.7,104,241.1,105z"/>
<path class="st0" d="M256.5,148c-59.6,0-108,48.4-108,108c0,59.6,48.4,108,108,108c59.6,0,108-48.5,108-108
	C364.5,196.5,316,148,256.5,148z M256.5,348c-50.7,0-92-41.3-92-92c0-50.7,41.3-92,92-92s92,41.3,92,92
	C348.5,306.7,307.2,348,256.5,348z"/>
<path class="st0" d="M255.6,176.1C255.6,176.1,255.6,176.1,255.6,176.1c-4.5,0-8,3.6-8,8.1l0.5,71.1c0,4.4,3.6,7.9,8,7.9
	c0,0,0,0,0.1,0c4.4,0,8-3.6,7.9-8.1l-0.5-71.1C263.6,179.6,260,176.1,255.6,176.1z"/>
</svg>
