<?xml version="1.0" encoding="utf-8"?>
<!-- Generator: Adobe Illustrator 19.0.1, SVG Export Plug-In . SVG Version: 6.00 Build 0)  -->
<svg version="1.1" id="Layer_1" xmlns="http://www.w3.org/2000/svg" xmlns:xlink="http://www.w3.org/1999/xlink" x="0px" y="0px"
	 viewBox="0 0 512 512" style="enable-background:new 0 0 512 512;" xml:space="preserve">
<style type="text/css">
	.st0{fill:#FFFFFF;}
</style>
<path class="st0" d="M397.7,312.8L254.8,169.9c-0.5-21.4-9.3-42.2-24.4-57.3c-15.8-15.8-36.7-24.4-59-24.4c-12.4,0-24.8,2.8-36,8.1
	c-4,1.9-6.8,5.7-7.6,10c-0.7,4.4,0.7,8.8,3.8,12l46.5,46.5c1.8,1.8,2.8,4.2,2.8,6.8c0,2.6-1,5-2.8,6.8c-1.8,1.8-4.2,2.8-6.8,2.8
	c-2.6,0-5-1-6.8-2.8l-46.5-46.5c-3.1-3.1-7.6-4.6-12-3.8c-4.4,0.7-8.1,3.6-10,7.6c-15.2,31.8-8.7,70,16.3,95
	c15.4,15.4,35.6,24,57.3,24.4l142.9,142.9c11.4,11.4,26.5,17.6,42.6,17.6c16.1,0,31.2-6.3,42.6-17.6
	C421.1,374.4,421.1,336.3,397.7,312.8z M208.3,171.6c0-9.9-3.8-19.1-10.8-26.1l-29.9-29.9c1.3-0.1,2.5-0.1,3.8-0.1
	c15,0,29.1,5.8,39.7,16.4c11.3,11.3,17.2,26.9,16.3,42.8c-0.2,3.9,1.2,7.7,4,10.4l147,147c6.2,6.2,9.6,14.4,9.6,23.2
	c0,8.8-3.4,17-9.6,23.2c-6.2,6.2-14.5,9.6-23.2,9.6s-17-3.4-23.2-9.6l-147-147c-2.6-2.6-6-4-9.7-4c-0.2,0-0.5,0-0.8,0
	c-1,0.1-2.1,0.1-3.1,0.1c-15,0-29.1-5.8-39.7-16.4c-11.5-11.5-17.3-27.5-16.3-43.4l29.9,29.9c7,7,16.2,10.8,26.1,10.8
	s19.1-3.8,26.1-10.8C204.5,190.8,208.3,181.5,208.3,171.6z"/>
<circle class="st0" cx="355.1" cy="355.4" r="18.6"/>
<path class="st0" d="M221.7,210.6c-3.1-3.1-8.2-3.1-11.3,0c-3.1,3.1-3.1,8.2,0,11.3l99,99c3.1,3.1,8.2,3.1,11.3,0
	c3.1-3.1,3.1-8.2,0-11.3L221.7,210.6z"/>
</svg>
