<?xml version="1.0" encoding="utf-8"?>
<!-- Generator: Adobe Illustrator 19.0.1, SVG Export Plug-In . SVG Version: 6.00 Build 0)  -->
<svg version="1.1" id="Layer_1" xmlns="http://www.w3.org/2000/svg" xmlns:xlink="http://www.w3.org/1999/xlink" x="0px" y="0px"
	 viewBox="0 0 512 512" style="enable-background:new 0 0 512 512;" xml:space="preserve">
<style type="text/css">
	.st0{fill:#FCFDFF;}
</style>
<path class="st0" d="M358.9,246L201.5,125.7c-4.2-3.2-9.7-3.7-14.4-1.4c-4.7,2.3-7.6,7-7.6,12.3l0.7,240c0,5.2,2.9,9.9,7.6,12.2
	c1.9,0.9,4,1.4,6,1.4c3,0,5.9-1,8.3-2.8l156.7-119.7c3.4-2.6,5.4-6.6,5.4-10.9C364.2,252.6,362.2,248.6,358.9,246z M328.1,256.9
	L207.5,349l-0.5-184.7L328.1,256.9z"/>
</svg>
