<?xml version="1.0" ?>
<!-- Find more at icons.mysitemyway.com -->
<svg height="100" width="100" viewBox="0 0 100 100" xmlns:xlink="http://www.w3.org/1999/xlink" xmlns="http://www.w3.org/2000/svg" version="1.1">
<path d="M92.857,46.373c0,3.312-0.911,6.344-2.734,9.096c0.335,1.229,0.503,2.512,0.503,3.851c0,2.865-0.707,5.544-2.121,8.036 c0.112,0.781,0.168,1.581,0.168,2.399c0,3.758-1.116,7.068-3.349,9.933c0.037,5.172-1.544,9.255-4.743,12.249 c-3.2,2.994-7.422,4.492-12.667,4.492h-2.01h-5.189c-3.571,0-7.097-0.418-10.574-1.255c-3.479-0.838-7.506-2.057-12.082-3.655 c-4.316-1.488-6.883-2.232-7.701-2.232H14.286c-1.973,0-3.655-0.697-5.05-2.093c-1.395-1.395-2.093-3.078-2.093-5.05V46.429 c0-1.972,0.698-3.655,2.093-5.05s3.078-2.093,5.05-2.093h15.29c1.339-0.893,3.887-3.775,7.645-8.649 c2.157-2.791,4.148-5.171,5.971-7.143c0.893-0.929,1.553-2.52,1.981-4.771c0.427-2.25,0.995-4.604,1.702-7.059 c0.707-2.456,1.86-4.464,3.46-6.027c1.45-1.376,3.125-2.065,5.021-2.065c3.125,0,5.934,0.605,8.427,1.813 c2.492,1.209,4.39,3.097,5.692,5.664c1.302,2.567,1.953,6.027,1.953,10.38c0,3.459-0.894,7.031-2.679,10.714h9.821 c3.868,0,7.217,1.415,10.045,4.241C91.443,39.212,92.857,42.542,92.857,46.373z M20.369,81.083c0.706-0.706,1.06-1.543,1.06-2.511 s-0.354-1.805-1.06-2.512C19.662,75.354,18.824,75,17.857,75c-0.968,0-1.805,0.354-2.511,1.061c-0.707,0.707-1.06,1.544-1.06,2.512 s0.353,1.805,1.06,2.511c0.706,0.707,1.543,1.061,2.511,1.061C18.824,82.143,19.662,81.79,20.369,81.083z M85.714,46.429 c0-1.897-0.726-3.562-2.176-4.995c-1.451-1.432-3.107-2.148-4.967-2.148H58.929c0-2.157,0.893-5.125,2.678-8.901 c1.786-3.775,2.679-6.761,2.679-8.956c0-3.646-0.596-6.343-1.785-8.092c-1.191-1.748-3.571-2.623-7.144-2.623 c-0.968,0.968-1.674,2.548-2.12,4.743c-0.446,2.195-1.014,4.53-1.702,7.003c-0.688,2.475-1.795,4.511-3.32,6.11 c-0.818,0.856-2.251,2.549-4.297,5.078c-0.149,0.187-0.577,0.745-1.283,1.674c-0.707,0.93-1.293,1.693-1.758,2.288 c-0.466,0.596-1.107,1.387-1.925,2.372c-0.819,0.986-1.562,1.805-2.232,2.455c-0.669,0.651-1.386,1.312-2.148,1.981 c-0.763,0.67-1.506,1.172-2.232,1.507s-1.386,0.502-1.981,0.502h-1.786v35.714h1.786c0.483,0,1.069,0.056,1.758,0.167 c0.688,0.111,1.302,0.233,1.841,0.363c0.539,0.13,1.246,0.334,2.121,0.613c0.874,0.279,1.525,0.493,1.953,0.642 c0.427,0.149,1.088,0.382,1.981,0.698c0.893,0.316,1.432,0.512,1.619,0.586c7.849,2.716,14.21,4.073,19.084,4.073h6.752 c7.144,0,10.715-3.105,10.715-9.319c0-0.967-0.094-2.009-0.279-3.125c1.116-0.595,1.999-1.571,2.65-2.93 c0.651-1.357,0.977-2.725,0.977-4.102c0-1.376-0.334-2.659-1.004-3.851c1.972-1.859,2.957-4.073,2.957-6.641 c0-0.93-0.187-1.962-0.558-3.097c-0.372-1.135-0.837-2.018-1.396-2.65c1.19-0.037,2.186-0.911,2.986-2.623 C85.314,49.238,85.714,47.731,85.714,46.429z" fill="#fff" />
</svg>